<svg width="537" height="312" viewBox="0 0 537 312" fill="none" xmlns="http://www.w3.org/2000/svg">
<rect width="537" height="312" fill="white"/>
<path d="M173.477 162.182V160L216.204 90.9091H218.022V96.9091H215.841L177.659 158.909V159.273H230.75V162.182H173.477ZM216.204 184V161.273V160.364V90.9091H219.113V184H216.204ZM269.006 185.273C263.097 185.273 258.006 183.348 253.733 179.5C249.491 175.652 246.218 170.152 243.915 163C241.612 155.848 240.46 147.333 240.46 137.455C240.46 127.576 241.612 119.061 243.915 111.909C246.218 104.758 249.491 99.2576 253.733 95.4091C258.006 91.5606 263.097 89.6364 269.006 89.6364C274.915 89.6364 279.991 91.5606 284.233 95.4091C288.506 99.2576 291.794 104.758 294.097 111.909C296.4 119.061 297.551 127.576 297.551 137.455C297.551 147.333 296.4 155.848 294.097 163C291.794 170.152 288.506 175.652 284.233 179.5C279.991 183.348 274.915 185.273 269.006 185.273ZM269.006 182.364C276.945 182.364 283.203 178.379 287.778 170.409C292.354 162.439 294.642 151.455 294.642 137.455C294.642 128.121 293.597 120.106 291.506 113.409C289.445 106.682 286.506 101.53 282.688 97.9545C278.869 94.3485 274.309 92.5454 269.006 92.5454C261.066 92.5454 254.809 96.5303 250.233 104.5C245.657 112.47 243.369 123.455 243.369 137.455C243.369 146.788 244.4 154.818 246.46 161.545C248.551 168.242 251.506 173.394 255.324 177C259.172 180.576 263.733 182.364 269.006 182.364ZM307.307 162.182V160L350.034 90.9091H351.853V96.9091H349.671L311.489 158.909V159.273H364.58V162.182H307.307ZM350.034 184V161.273V160.364V90.9091H352.943V184H350.034Z" fill="url(#paint0_linear_594_32)"/>
<path d="M206.796 203.909V233H204.211L187.024 208.639H186.796V233H184.14V203.909H186.711L203.956 228.298H204.183V203.909H206.796ZM220.085 233.455C218.201 233.455 216.534 232.976 215.085 232.02C213.646 231.063 212.519 229.742 211.705 228.057C210.89 226.362 210.483 224.406 210.483 222.19C210.483 219.955 210.89 217.991 211.705 216.295C212.519 214.591 213.646 213.265 215.085 212.318C216.534 211.362 218.201 210.884 220.085 210.884C221.97 210.884 223.632 211.362 225.071 212.318C226.511 213.275 227.637 214.6 228.452 216.295C229.276 217.991 229.688 219.955 229.688 222.19C229.688 224.406 229.28 226.362 228.466 228.057C227.652 229.742 226.52 231.063 225.071 232.02C223.632 232.976 221.97 233.455 220.085 233.455ZM220.085 231.139C221.601 231.139 222.884 230.732 223.935 229.918C224.986 229.103 225.781 228.019 226.321 226.665C226.87 225.311 227.145 223.819 227.145 222.19C227.145 220.562 226.87 219.065 226.321 217.702C225.781 216.338 224.986 215.244 223.935 214.42C222.884 213.597 221.601 213.185 220.085 213.185C218.58 213.185 217.297 213.597 216.236 214.42C215.185 215.244 214.385 216.338 213.835 217.702C213.296 219.065 213.026 220.562 213.026 222.19C213.026 223.819 213.296 225.311 213.835 226.665C214.385 228.019 215.185 229.103 216.236 229.918C217.287 230.732 218.57 231.139 220.085 231.139ZM241.432 211.182V213.384H231.02V211.182H241.432ZM234.273 205.955H236.815V227.304C236.815 228.213 236.972 228.928 237.284 229.449C237.597 229.96 238.004 230.325 238.506 230.543C239.008 230.751 239.543 230.855 240.111 230.855C240.442 230.855 240.726 230.836 240.963 230.798C241.2 230.751 241.408 230.704 241.588 230.656L242.128 232.943C241.882 233.038 241.579 233.123 241.219 233.199C240.859 233.284 240.414 233.327 239.884 233.327C238.955 233.327 238.061 233.123 237.199 232.716C236.347 232.309 235.646 231.703 235.097 230.898C234.547 230.093 234.273 229.094 234.273 227.901V205.955ZM262.601 211.182V213.384H251.877V211.182H262.601ZM255.229 233V207.986C255.229 206.812 255.499 205.822 256.039 205.017C256.588 204.212 257.303 203.601 258.184 203.185C259.064 202.768 259.997 202.56 260.982 202.56C261.645 202.56 262.194 202.616 262.63 202.73C263.075 202.834 263.425 202.938 263.681 203.043L262.942 205.259C262.753 205.202 262.521 205.135 262.246 205.06C261.972 204.984 261.626 204.946 261.209 204.946C260.111 204.946 259.263 205.254 258.667 205.869C258.07 206.485 257.772 207.366 257.772 208.511L257.758 233H255.229ZM272.829 233.455C270.945 233.455 269.278 232.976 267.829 232.02C266.39 231.063 265.263 229.742 264.448 228.057C263.634 226.362 263.227 224.406 263.227 222.19C263.227 219.955 263.634 217.991 264.448 216.295C265.263 214.591 266.39 213.265 267.829 212.318C269.278 211.362 270.945 210.884 272.829 210.884C274.714 210.884 276.376 211.362 277.815 212.318C279.254 213.275 280.381 214.6 281.196 216.295C282.019 217.991 282.431 219.955 282.431 222.19C282.431 224.406 282.024 226.362 281.21 228.057C280.395 229.742 279.264 231.063 277.815 232.02C276.376 232.976 274.714 233.455 272.829 233.455ZM272.829 231.139C274.344 231.139 275.627 230.732 276.679 229.918C277.73 229.103 278.525 228.019 279.065 226.665C279.614 225.311 279.889 223.819 279.889 222.19C279.889 220.562 279.614 219.065 279.065 217.702C278.525 216.338 277.73 215.244 276.679 214.42C275.627 213.597 274.344 213.185 272.829 213.185C271.323 213.185 270.04 213.597 268.98 214.42C267.929 215.244 267.128 216.338 266.579 217.702C266.039 219.065 265.769 220.562 265.769 222.19C265.769 223.819 266.039 225.311 266.579 226.665C267.128 228.019 267.929 229.103 268.98 229.918C270.031 230.732 271.314 231.139 272.829 231.139ZM299.445 224.662V211.182H301.974V233H299.445V229.378H299.247C298.735 230.495 297.926 231.428 296.818 232.176C295.71 232.915 294.355 233.284 292.755 233.284C291.363 233.284 290.127 232.981 289.048 232.375C287.968 231.759 287.121 230.86 286.505 229.676C285.89 228.492 285.582 227.039 285.582 225.315V211.182H288.11V225.159C288.11 226.864 288.612 228.237 289.616 229.278C290.62 230.311 291.908 230.827 293.48 230.827C294.464 230.827 295.411 230.59 296.32 230.116C297.23 229.643 297.978 228.952 298.565 228.043C299.152 227.124 299.445 225.997 299.445 224.662ZM308.796 219.364V233H306.268V211.182H308.725V214.605H308.952C309.464 213.488 310.259 212.593 311.339 211.92C312.428 211.239 313.772 210.898 315.373 210.898C316.841 210.898 318.129 211.205 319.237 211.821C320.354 212.427 321.22 213.322 321.836 214.506C322.461 215.689 322.773 217.143 322.773 218.866V233H320.245V219.023C320.245 217.233 319.743 215.817 318.739 214.776C317.745 213.734 316.41 213.213 314.734 213.213C313.588 213.213 312.57 213.459 311.68 213.952C310.79 214.444 310.084 215.154 309.563 216.082C309.052 217.001 308.796 218.095 308.796 219.364ZM334.887 233.455C333.097 233.455 331.53 232.981 330.185 232.034C328.841 231.087 327.789 229.766 327.032 228.071C326.284 226.376 325.91 224.402 325.91 222.148C325.91 219.903 326.284 217.938 327.032 216.253C327.789 214.558 328.845 213.241 330.199 212.304C331.554 211.357 333.13 210.884 334.93 210.884C336.255 210.884 337.359 211.12 338.239 211.594C339.12 212.058 339.825 212.635 340.356 213.327C340.886 214.018 341.298 214.69 341.591 215.344H341.819V203.909H344.361V233H341.89V228.952H341.591C341.298 229.615 340.881 230.296 340.341 230.997C339.802 231.688 339.087 232.271 338.197 232.744C337.316 233.218 336.213 233.455 334.887 233.455ZM335.185 231.139C336.596 231.139 337.799 230.756 338.793 229.989C339.788 229.212 340.545 228.147 341.066 226.793C341.596 225.429 341.861 223.866 341.861 222.105C341.861 220.363 341.601 218.824 341.08 217.489C340.559 216.144 339.802 215.093 338.807 214.335C337.813 213.568 336.606 213.185 335.185 213.185C333.727 213.185 332.496 213.582 331.492 214.378C330.498 215.164 329.74 216.229 329.219 217.574C328.708 218.919 328.452 220.429 328.452 222.105C328.452 223.8 328.713 225.33 329.234 226.693C329.754 228.057 330.512 229.141 331.506 229.946C332.51 230.741 333.736 231.139 335.185 231.139ZM352.714 203.909L352.53 224.662H350.03L349.845 203.909H352.714ZM351.28 233.213C350.721 233.213 350.238 233.014 349.831 232.616C349.433 232.209 349.234 231.726 349.234 231.168C349.234 230.599 349.433 230.116 349.831 229.719C350.238 229.321 350.721 229.122 351.28 229.122C351.838 229.122 352.316 229.321 352.714 229.719C353.121 230.116 353.325 230.599 353.325 231.168C353.325 231.537 353.23 231.878 353.041 232.19C352.861 232.503 352.615 232.754 352.302 232.943C351.999 233.123 351.658 233.213 351.28 233.213Z" fill="#222222"/>
<defs>
<linearGradient id="paint0_linear_594_32" x1="147" y1="137.165" x2="391" y2="137.165" gradientUnits="userSpaceOnUse">
<stop stop-color="#F8491B"/>
<stop offset="0.5" stop-color="#F12F3F"/>
<stop offset="1" stop-color="#DD1A5D"/>
</linearGradient>
</defs>
</svg>
