<svg width="153" height="45" viewBox="0 0 153 45" fill="none" xmlns="http://www.w3.org/2000/svg">
<rect width="152.999" height="45" rx="10" fill="url(#paint0_linear_224_60)"/>
<path d="M52.9889 21H51.4037C51.31 20.544 51.1459 20.1435 50.9115 19.7983C50.6814 19.4531 50.4002 19.1634 50.0678 18.929C49.7397 18.6903 49.3753 18.5114 48.9747 18.392C48.5742 18.2727 48.1566 18.2131 47.7219 18.2131C46.9293 18.2131 46.2112 18.4134 45.5678 18.8139C44.9286 19.2145 44.4193 19.8047 44.0401 20.5845C43.6651 21.3643 43.4776 22.321 43.4776 23.4545C43.4776 24.5881 43.6651 25.5447 44.0401 26.3246C44.4193 27.1044 44.9286 27.6946 45.5678 28.0952C46.2112 28.4957 46.9293 28.696 47.7219 28.696C48.1566 28.696 48.5742 28.6364 48.9747 28.517C49.3753 28.3977 49.7397 28.2209 50.0678 27.9865C50.4002 27.7479 50.6814 27.456 50.9115 27.1108C51.1459 26.7614 51.31 26.3608 51.4037 25.9091H52.9889C52.8696 26.5781 52.6523 27.1768 52.337 27.7053C52.0216 28.2337 51.6296 28.6832 51.1608 29.054C50.6921 29.4205 50.1658 29.6996 49.582 29.8913C49.0024 30.0831 48.3824 30.179 47.7219 30.179C46.6054 30.179 45.6125 29.9062 44.7432 29.3608C43.8739 28.8153 43.1899 28.0398 42.6914 27.0341C42.1928 26.0284 41.9435 24.8352 41.9435 23.4545C41.9435 22.0739 42.1928 20.8807 42.6914 19.875C43.1899 18.8693 43.8739 18.0938 44.7432 17.5483C45.6125 17.0028 46.6054 16.7301 47.7219 16.7301C48.3824 16.7301 49.0024 16.826 49.582 17.0178C50.1658 17.2095 50.6921 17.4908 51.1608 17.8615C51.6296 18.228 52.0216 18.6754 52.337 19.2038C52.6523 19.728 52.8696 20.3267 52.9889 21ZM59.3347 30.2045C58.4483 30.2045 57.6706 29.9936 57.0016 29.5717C56.3368 29.1499 55.8169 28.5597 55.4419 27.8011C55.0712 27.0426 54.8858 26.1562 54.8858 25.142C54.8858 24.1193 55.0712 23.2266 55.4419 22.4638C55.8169 21.701 56.3368 21.1087 57.0016 20.6868C57.6706 20.2649 58.4483 20.054 59.3347 20.054C60.221 20.054 60.9966 20.2649 61.6614 20.6868C62.3304 21.1087 62.8503 21.701 63.221 22.4638C63.596 23.2266 63.7835 24.1193 63.7835 25.142C63.7835 26.1562 63.596 27.0426 63.221 27.8011C62.8503 28.5597 62.3304 29.1499 61.6614 29.5717C60.9966 29.9936 60.221 30.2045 59.3347 30.2045ZM59.3347 28.8494C60.0079 28.8494 60.5619 28.6768 60.9966 28.3317C61.4312 27.9865 61.753 27.5327 61.9618 26.9702C62.1706 26.4077 62.275 25.7983 62.275 25.142C62.275 24.4858 62.1706 23.8743 61.9618 23.3075C61.753 22.7408 61.4312 22.2827 60.9966 21.9332C60.5619 21.5838 60.0079 21.4091 59.3347 21.4091C58.6614 21.4091 58.1074 21.5838 57.6727 21.9332C57.2381 22.2827 56.9163 22.7408 56.7075 23.3075C56.4987 23.8743 56.3943 24.4858 56.3943 25.142C56.3943 25.7983 56.4987 26.4077 56.7075 26.9702C56.9163 27.5327 57.2381 27.9865 57.6727 28.3317C58.1074 28.6768 58.6614 28.8494 59.3347 28.8494ZM67.5948 16.9091V30H66.0862V16.9091H67.5948ZM71.8663 16.9091V30H70.3577V16.9091H71.8663ZM77.5184 30.2301C76.8963 30.2301 76.3316 30.1129 75.8245 29.8786C75.3174 29.6399 74.9147 29.2969 74.6164 28.8494C74.3181 28.3977 74.169 27.8523 74.169 27.2131C74.169 26.6506 74.2798 26.1946 74.5014 25.8452C74.723 25.4915 75.0191 25.2145 75.3899 25.0142C75.7606 24.8139 76.1697 24.6648 76.6171 24.5668C77.0688 24.4645 77.5227 24.3835 77.9786 24.3239C78.5752 24.2472 79.0589 24.1896 79.4296 24.1513C79.8046 24.1087 80.0774 24.0384 80.2478 23.9403C80.4225 23.8423 80.5099 23.6719 80.5099 23.429V23.3778C80.5099 22.7472 80.3373 22.2571 79.9921 21.9077C79.6512 21.5582 79.1335 21.3835 78.4389 21.3835C77.7187 21.3835 77.1541 21.5412 76.745 21.8565C76.3359 22.1719 76.0483 22.5085 75.8821 22.8665L74.4502 22.3551C74.7059 21.7585 75.0468 21.294 75.473 20.9616C75.9034 20.625 76.3721 20.3906 76.8792 20.2585C77.3906 20.1222 77.8934 20.054 78.3877 20.054C78.7031 20.054 79.0653 20.0923 79.4744 20.169C79.8877 20.2415 80.2862 20.3928 80.6697 20.6229C81.0575 20.853 81.3792 21.2003 81.6349 21.6648C81.8906 22.1293 82.0184 22.7514 82.0184 23.5312V30H80.5099V28.6705H80.4332C80.3309 28.8835 80.1605 29.1115 79.9218 29.3544C79.6832 29.5973 79.3657 29.804 78.9694 29.9744C78.5731 30.1449 78.0894 30.2301 77.5184 30.2301ZM77.7485 28.875C78.3451 28.875 78.848 28.7578 79.2571 28.5234C79.6704 28.2891 79.9815 27.9865 80.1903 27.6158C80.4034 27.245 80.5099 26.8551 80.5099 26.446V25.0653C80.446 25.142 80.3054 25.2124 80.088 25.2763C79.875 25.3359 79.6278 25.3892 79.3465 25.4361C79.0696 25.4787 78.799 25.517 78.5348 25.5511C78.2748 25.581 78.0639 25.6065 77.9019 25.6278C77.5099 25.679 77.1434 25.7621 76.8025 25.8771C76.4659 25.9879 76.1931 26.1562 75.9843 26.3821C75.7798 26.6037 75.6775 26.9062 75.6775 27.2898C75.6775 27.8139 75.8714 28.2102 76.2592 28.4787C76.6512 28.7429 77.1477 28.875 77.7485 28.875ZM84.9763 30V16.9091H86.4849V21.7415H86.6127C86.7235 21.571 86.8769 21.3537 87.0729 21.0895C87.2732 20.821 87.5587 20.5824 87.9295 20.3736C88.3045 20.1605 88.8116 20.054 89.4508 20.054C90.2775 20.054 91.0062 20.2607 91.6369 20.674C92.2675 21.0874 92.7597 21.6733 93.1134 22.4318C93.4671 23.1903 93.644 24.0852 93.644 25.1165C93.644 26.1562 93.4671 27.0575 93.1134 27.8203C92.7597 28.5788 92.2697 29.1669 91.6432 29.5845C91.0168 29.9979 90.2945 30.2045 89.4763 30.2045C88.8457 30.2045 88.3407 30.1001 87.9614 29.8913C87.5822 29.6783 87.2903 29.4375 87.0857 29.169C86.8812 28.8963 86.7235 28.6705 86.6127 28.4915H86.4337V30H84.9763ZM86.4593 25.0909C86.4593 25.8324 86.568 26.4865 86.7853 27.0533C87.0026 27.6158 87.3201 28.0568 87.7377 28.3764C88.1553 28.6918 88.6667 28.8494 89.2718 28.8494C89.9025 28.8494 90.4288 28.6832 90.8506 28.3509C91.2768 28.0142 91.5964 27.5625 91.8094 26.9957C92.0268 26.4247 92.1354 25.7898 92.1354 25.0909C92.1354 24.4006 92.0289 23.7784 91.8158 23.2244C91.607 22.6662 91.2896 22.2251 90.8634 21.9013C90.4415 21.5732 89.911 21.4091 89.2718 21.4091C88.6582 21.4091 88.1425 21.5646 87.7249 21.8757C87.3073 22.1825 86.992 22.6129 86.7789 23.1669C86.5658 23.7166 86.4593 24.358 86.4593 25.0909ZM99.9401 30.2045C99.0538 30.2045 98.2761 29.9936 97.607 29.5717C96.9422 29.1499 96.4224 28.5597 96.0474 27.8011C95.6766 27.0426 95.4913 26.1562 95.4913 25.142C95.4913 24.1193 95.6766 23.2266 96.0474 22.4638C96.4224 21.701 96.9422 21.1087 97.607 20.6868C98.2761 20.2649 99.0538 20.054 99.9401 20.054C100.826 20.054 101.602 20.2649 102.267 20.6868C102.936 21.1087 103.456 21.701 103.826 22.4638C104.201 23.2266 104.389 24.1193 104.389 25.142C104.389 26.1562 104.201 27.0426 103.826 27.8011C103.456 28.5597 102.936 29.1499 102.267 29.5717C101.602 29.9936 100.826 30.2045 99.9401 30.2045ZM99.9401 28.8494C100.613 28.8494 101.167 28.6768 101.602 28.3317C102.037 27.9865 102.358 27.5327 102.567 26.9702C102.776 26.4077 102.88 25.7983 102.88 25.142C102.88 24.4858 102.776 23.8743 102.567 23.3075C102.358 22.7408 102.037 22.2827 101.602 21.9332C101.167 21.5838 100.613 21.4091 99.9401 21.4091C99.2668 21.4091 98.7128 21.5838 98.2782 21.9332C97.8435 22.2827 97.5218 22.7408 97.313 23.3075C97.1042 23.8743 96.9998 24.4858 96.9998 25.142C96.9998 25.7983 97.1042 26.4077 97.313 26.9702C97.5218 27.5327 97.8435 27.9865 98.2782 28.3317C98.7128 28.6768 99.2668 28.8494 99.9401 28.8494ZM106.692 30V20.1818H108.149V21.6648H108.251C108.43 21.179 108.754 20.7848 109.223 20.4822C109.692 20.1797 110.22 20.0284 110.808 20.0284C110.919 20.0284 111.057 20.0305 111.224 20.0348C111.39 20.0391 111.516 20.0455 111.601 20.054V21.5881C111.55 21.5753 111.432 21.5561 111.249 21.5305C111.07 21.5007 110.881 21.4858 110.68 21.4858C110.203 21.4858 109.777 21.5859 109.402 21.7862C109.031 21.9822 108.737 22.255 108.52 22.6044C108.307 22.9496 108.2 23.3437 108.2 23.7869V30H106.692ZM116.278 30.2301C115.656 30.2301 115.091 30.1129 114.584 29.8786C114.077 29.6399 113.674 29.2969 113.376 28.8494C113.078 28.3977 112.929 27.8523 112.929 27.2131C112.929 26.6506 113.04 26.1946 113.261 25.8452C113.483 25.4915 113.779 25.2145 114.15 25.0142C114.52 24.8139 114.929 24.6648 115.377 24.5668C115.829 24.4645 116.282 24.3835 116.738 24.3239C117.335 24.2472 117.819 24.1896 118.189 24.1513C118.564 24.1087 118.837 24.0384 119.008 23.9403C119.182 23.8423 119.27 23.6719 119.27 23.429V23.3778C119.27 22.7472 119.097 22.2571 118.752 21.9077C118.411 21.5582 117.893 21.3835 117.199 21.3835C116.478 21.3835 115.914 21.5412 115.505 21.8565C115.096 22.1719 114.808 22.5085 114.642 22.8665L113.21 22.3551C113.466 21.7585 113.807 21.294 114.233 20.9616C114.663 20.625 115.132 20.3906 115.639 20.2585C116.15 20.1222 116.653 20.054 117.148 20.054C117.463 20.054 117.825 20.0923 118.234 20.169C118.648 20.2415 119.046 20.3928 119.429 20.6229C119.817 20.853 120.139 21.2003 120.395 21.6648C120.65 22.1293 120.778 22.7514 120.778 23.5312V30H119.27V28.6705H119.193C119.091 28.8835 118.92 29.1115 118.682 29.3544C118.443 29.5973 118.125 29.804 117.729 29.9744C117.333 30.1449 116.849 30.2301 116.278 30.2301ZM116.508 28.875C117.105 28.875 117.608 28.7578 118.017 28.5234C118.43 28.2891 118.741 27.9865 118.95 27.6158C119.163 27.245 119.27 26.8551 119.27 26.446V25.0653C119.206 25.142 119.065 25.2124 118.848 25.2763C118.635 25.3359 118.388 25.3892 118.106 25.4361C117.829 25.4787 117.559 25.517 117.295 25.5511C117.035 25.581 116.824 25.6065 116.662 25.6278C116.27 25.679 115.903 25.7621 115.562 25.8771C115.226 25.9879 114.953 26.1562 114.744 26.3821C114.54 26.6037 114.437 26.9062 114.437 27.2898C114.437 27.8139 114.631 28.2102 115.019 28.4787C115.411 28.7429 115.907 28.875 116.508 28.875ZM127.801 20.1818V21.4602H122.713V20.1818H127.801ZM124.196 17.8295H125.705V27.1875C125.705 27.6136 125.767 27.9332 125.89 28.1463C126.018 28.3551 126.18 28.4957 126.376 28.5682C126.576 28.6364 126.787 28.6705 127.009 28.6705C127.175 28.6705 127.311 28.6619 127.418 28.6449C127.524 28.6236 127.61 28.6065 127.674 28.5938L127.98 29.9489C127.878 29.9872 127.735 30.0256 127.552 30.0639C127.369 30.1065 127.137 30.1278 126.855 30.1278C126.429 30.1278 126.012 30.0362 125.603 29.853C125.198 29.6697 124.861 29.3906 124.593 29.0156C124.328 28.6406 124.196 28.1676 124.196 27.5966V17.8295ZM134.082 30.2045C133.136 30.2045 132.32 29.9957 131.633 29.5781C130.952 29.1562 130.425 28.5682 130.055 27.8139C129.688 27.0554 129.505 26.1733 129.505 25.1676C129.505 24.1619 129.688 23.2756 130.055 22.5085C130.425 21.7372 130.941 21.1364 131.602 20.706C132.266 20.2713 133.042 20.054 133.928 20.054C134.44 20.054 134.945 20.1392 135.443 20.3097C135.942 20.4801 136.396 20.7571 136.805 21.1406C137.214 21.5199 137.54 22.0227 137.783 22.6491C138.026 23.2756 138.147 24.0469 138.147 24.9631V25.6023H130.579V24.2983H136.613C136.613 23.7443 136.502 23.25 136.28 22.8153C136.063 22.3807 135.752 22.0376 135.347 21.7862C134.947 21.5348 134.474 21.4091 133.928 21.4091C133.327 21.4091 132.807 21.5582 132.369 21.8565C131.934 22.1506 131.599 22.5341 131.365 23.0071C131.131 23.4801 131.013 23.9872 131.013 24.5284V25.3977C131.013 26.1392 131.141 26.7678 131.397 27.2834C131.657 27.7947 132.017 28.1847 132.477 28.4531C132.937 28.7173 133.472 28.8494 134.082 28.8494C134.478 28.8494 134.836 28.794 135.155 28.6832C135.479 28.5682 135.758 28.3977 135.993 28.1719C136.227 27.9418 136.408 27.6562 136.536 27.3153L137.994 27.7244C137.84 28.2188 137.582 28.6534 137.22 29.0284C136.858 29.3991 136.41 29.6889 135.878 29.8977C135.345 30.1023 134.746 30.2045 134.082 30.2045Z" fill="white"/>
<path d="M15 28.7133V28.0243C15 25.3605 16.9134 23.2011 19.2736 23.2011C21.6339 23.2011 23.5473 25.3605 23.5473 28.0243V28.7133" stroke="white" stroke-width="1.5" stroke-linecap="round"/>
<path d="M23.5474 24.5792C23.5474 22.6765 24.9141 21.1341 26.6 21.1341C28.2858 21.1341 29.6526 22.6765 29.6526 24.5792V24.9237" stroke="white" stroke-width="1.5" stroke-linecap="round"/>
<path d="M19.2736 23.2012C20.6223 23.2012 21.7157 21.9672 21.7157 20.4451C21.7157 18.923 20.6223 17.689 19.2736 17.689C17.9249 17.689 16.8315 18.923 16.8315 20.4451C16.8315 21.9672 17.9249 23.2012 19.2736 23.2012Z" stroke="white" stroke-width="1.5" stroke-linecap="round" stroke-linejoin="round"/>
<path d="M26.5999 21.1341C27.6114 21.1341 28.4314 20.2086 28.4314 19.0671C28.4314 17.9255 27.6114 17 26.5999 17C25.5883 17 24.7683 17.9255 24.7683 19.0671C24.7683 20.2086 25.5883 21.1341 26.5999 21.1341Z" stroke="white" stroke-width="1.5" stroke-linecap="round" stroke-linejoin="round"/>
<defs>
<linearGradient id="paint0_linear_224_60" x1="0" y1="22.5" x2="152.999" y2="22.5" gradientUnits="userSpaceOnUse">
<stop stop-color="#F8491B"/>
<stop offset="0.5" stop-color="#F12F3F"/>
<stop offset="1" stop-color="#DD1A5D"/>
</linearGradient>
</defs>
</svg>
