<svg width="100" height="100" viewBox="0 0 100 100" fill="none" xmlns="http://www.w3.org/2000/svg">
<rect width="100" height="100" rx="10" fill="url(#paint0_linear_224_68)"/>
<path d="M16.6775 75.5561V72.6803C16.6775 61.5624 25.3831 52.5496 36.1219 52.5496C46.8608 52.5496 55.5664 61.5624 55.5664 72.6803V75.5561" stroke="white" stroke-width="1.5" stroke-linecap="round"/>
<path d="M55.5667 58.301C55.5667 50.3597 61.785 43.9219 69.4555 43.9219C77.1261 43.9219 83.3444 50.3597 83.3444 58.301V59.7389" stroke="white" stroke-width="1.5" stroke-linecap="round"/>
<path d="M36.1219 52.5495C42.2583 52.5495 47.233 47.3991 47.233 41.0462C47.233 34.6931 42.2583 29.5429 36.1219 29.5429C29.9854 29.5429 25.0107 34.6931 25.0107 41.0462C25.0107 47.3991 29.9854 52.5495 36.1219 52.5495Z" stroke="white" stroke-width="1.5" stroke-linecap="round" stroke-linejoin="round"/>
<path d="M69.4557 43.9217C74.0582 43.9217 77.789 40.0591 77.789 35.2943C77.789 30.5295 74.0582 26.6668 69.4557 26.6668C64.8531 26.6668 61.1223 30.5295 61.1223 35.2943C61.1223 40.0591 64.8531 43.9217 69.4557 43.9217Z" stroke="white" stroke-width="1.5" stroke-linecap="round" stroke-linejoin="round"/>
<defs>
<linearGradient id="paint0_linear_224_68" x1="0" y1="50" x2="100" y2="50" gradientUnits="userSpaceOnUse">
<stop stop-color="#F8491B"/>
<stop offset="0.5" stop-color="#F12F3F"/>
<stop offset="1" stop-color="#DD1A5D"/>
</linearGradient>
</defs>
</svg>
