<svg width="100" height="100" viewBox="0 0 100 100" fill="none" xmlns="http://www.w3.org/2000/svg">
<rect width="100" height="100" rx="10" fill="url(#paint0_linear_224_68)"/>
<path d="M14 72.8894V70.0135C14 58.8956 22.7056 49.8828 33.4445 49.8828C44.1834 49.8828 52.8889 58.8956 52.8889 70.0135V72.8894" stroke="white" stroke-width="3.5" stroke-linecap="round"/>
<path d="M52.8892 55.6343C52.8892 47.693 59.1075 41.2552 66.7781 41.2552C74.4486 41.2552 80.667 47.693 80.667 55.6343V57.0722" stroke="white" stroke-width="3.5" stroke-linecap="round"/>
<path d="M33.4444 49.8827C39.5808 49.8827 44.5555 44.7324 44.5555 38.3794C44.5555 32.0263 39.5808 26.8762 33.4444 26.8762C27.3079 26.8762 22.3333 32.0263 22.3333 38.3794C22.3333 44.7324 27.3079 49.8827 33.4444 49.8827Z" stroke="white" stroke-width="3.5" stroke-linecap="round" stroke-linejoin="round"/>
<path d="M66.7782 41.255C71.3807 41.255 75.1115 37.3923 75.1115 32.6275C75.1115 27.8627 71.3807 24.0001 66.7782 24.0001C62.1757 24.0001 58.4448 27.8627 58.4448 32.6275C58.4448 37.3923 62.1757 41.255 66.7782 41.255Z" stroke="white" stroke-width="3.5" stroke-linecap="round" stroke-linejoin="round"/>
<defs>
<linearGradient id="paint0_linear_224_68" x1="0" y1="50" x2="100" y2="50" gradientUnits="userSpaceOnUse">
<stop stop-color="#F8491B"/>
<stop offset="0.5" stop-color="#F12F3F"/>
<stop offset="1" stop-color="#DD1A5D"/>
</linearGradient>
</defs>
</svg>
