<svg width="61" height="61" viewBox="0 0 61 61" fill="none" xmlns="http://www.w3.org/2000/svg">
<mask id="path-1-inside-1_1162_56" fill="white">
<path d="M0 45C0 40.0294 4.02944 36 9 36H39C43.9706 36 48 40.0294 48 45V61H0V45Z"/>
</mask>
<path d="M-5 45C-5 37.268 1.26801 31 9 31H39C46.732 31 53 37.268 53 45H43C43 42.7909 41.2091 41 39 41H9C6.79086 41 5 42.7909 5 45H-5ZM48 61H0H48ZM-5 61V45C-5 37.268 1.26801 31 9 31V41C6.79086 41 5 42.7909 5 45V61H-5ZM39 31C46.732 31 53 37.268 53 45V61H43V45C43 42.7909 41.2091 41 39 41V31Z" fill="black" mask="url(#path-1-inside-1_1162_56)"/>
<circle cx="24.2713" cy="16.8035" r="14.3035" stroke="black" stroke-width="5"/>
<path d="M49.4062 40.1534V20.9489H53.2273V40.1534H49.4062ZM41.7216 32.4545V28.6335H60.9261V32.4545H41.7216Z" fill="black"/>
</svg>
