<svg width="100" height="100" viewBox="0 0 100 100" fill="none" xmlns="http://www.w3.org/2000/svg">
<circle cx="50" cy="50" r="49.5" stroke="black"/>
<path d="M74 44.6556C74 48.5218 72.5749 52.2353 70.0299 54.9823C64.1718 61.3075 58.4898 67.9033 52.4127 73.9993C51.0198 75.3763 48.8101 75.326 47.4771 73.8868L29.969 54.9823C24.677 49.268 24.677 40.0431 29.969 34.3289C35.3131 28.5586 44.0191 28.5586 49.363 34.3289L49.9995 35.0161L50.6355 34.3293C53.1978 31.5613 56.6874 30 60.3327 30C63.9781 30 67.4674 31.5611 70.0299 34.3289C72.5751 37.0761 74 40.7894 74 44.6556Z" stroke="black" stroke-width="2.5" stroke-linejoin="round"/>
</svg>
