<svg width="100" height="100" viewBox="0 0 100 100" fill="none" xmlns="http://www.w3.org/2000/svg">
<circle cx="50" cy="50" r="48.5" stroke="white" stroke-width="3"/>
<path d="M77.062 68.942C72.45 64.732 69.552 58.71 69.5 52.01V52C69.5 35.41 60.436 27.386 51.5 26.58V22C51.5 21.172 50.828 20.5 50 20.5C49.172 20.5 48.5 21.172 48.5 22V26.58C39.562 27.386 30.5 35.41 30.5 52C30.408 58.698 27.522 64.706 22.958 68.924L22.942 68.938C22.668 69.21 22.5 69.586 22.5 70.002C22.5 70.83 23.172 71.502 24 71.502H40.654C41.386 76.062 45.292 79.502 50.002 79.502C54.712 79.502 58.618 76.062 59.344 71.556L59.352 71.502H76.004C76.832 71.502 77.506 70.83 77.506 70.002C77.506 69.588 77.338 69.214 77.068 68.942H77.062ZM50 76.5C46.948 76.492 44.392 74.384 43.702 71.544L43.692 71.5H56.308C55.608 74.384 53.052 76.492 50 76.5ZM27.388 68.5C31.174 64.09 33.484 58.316 33.5 52.004V52C33.5 36.542 42.052 29.5 50 29.5C54.534 29.554 58.564 31.664 61.208 34.94L61.23 34.968C64.538 39.29 66.53 44.77 66.53 50.716C66.53 51.16 66.518 51.604 66.496 52.042L66.498 51.98C66.498 52.022 66.498 52.074 66.498 52.124C66.498 58.404 68.814 64.142 72.638 68.532L72.612 68.502L27.388 68.5Z" fill="white" stroke="white" stroke-width="0.64"/>
</svg>
