<svg width="22" height="22" viewBox="0 0 22 22" fill="none" xmlns="http://www.w3.org/2000/svg">
<path d="M21 7.51358C21 9.23189 20.4062 10.8823 19.3458 12.1032C16.9049 14.9145 14.5374 17.8459 12.0053 20.5552C11.4249 21.1672 10.5042 21.1449 9.9488 20.5052L2.65376 12.1032C0.448747 9.56356 0.448747 5.46359 2.65376 2.92397C4.88044 0.359388 8.50794 0.359388 10.7346 2.92397L10.9998 3.22936L11.2648 2.92415C12.3324 1.69389 13.7864 1 15.3053 1C16.8242 1 18.2781 1.69382 19.3458 2.92397C20.4063 4.14495 21 5.7953 21 7.51358Z" fill="url(#paint0_linear_141_30)" stroke="url(#paint1_linear_141_30)" stroke-linejoin="round"/>
<defs>
<linearGradient id="paint0_linear_141_30" x1="1" y1="11" x2="21" y2="11" gradientUnits="userSpaceOnUse">
<stop stop-color="#F8491B"/>
<stop offset="0.5" stop-color="#F12F3F"/>
<stop offset="1" stop-color="#DD1A5D"/>
</linearGradient>
<linearGradient id="paint1_linear_141_30" x1="1" y1="11" x2="21" y2="11" gradientUnits="userSpaceOnUse">
<stop stop-color="#F8491B"/>
<stop offset="0.5" stop-color="#F12F3F"/>
<stop offset="1" stop-color="#DD1A5D"/>
</linearGradient>
</defs>
</svg>
