<svg width="37" height="32" viewBox="0 0 37 32" fill="none" xmlns="http://www.w3.org/2000/svg">
<path d="M35.8496 1.01682C35.8496 1.01682 32.6633 3.0099 30.8915 3.57482C29.9404 2.41705 28.6766 1.59645 27.2708 1.224C25.865 0.851568 24.3852 0.945244 23.0313 1.49239C21.6775 2.03953 20.5148 3.01373 19.701 4.28321C18.887 5.55272 18.461 7.05625 18.4804 8.5905V10.2624C15.7055 10.3386 12.9559 9.68694 10.4765 8.36553C7.99698 7.04411 5.86466 5.09395 4.26935 2.68871C4.26935 2.68871 -2.04669 17.7358 12.1644 24.4234C8.91248 26.7605 5.03858 27.9325 1.11133 27.7672C15.3224 36.1267 32.6915 27.7672 32.6915 8.54034C32.6901 8.07463 32.6478 7.61008 32.5652 7.15267C34.1768 5.46989 35.8496 1.01682 35.8496 1.01682Z" stroke="white" stroke-width="2" stroke-linecap="round" stroke-linejoin="round"/>
</svg>
