<svg width="40" height="30" viewBox="0 0 40 30" fill="none" xmlns="http://www.w3.org/2000/svg">
<path d="M35.4866 0H4.58733C3.50368 0.00130579 2.46477 0.457684 1.69851 1.26901C0.932257 2.08034 0.501233 3.18036 0.5 4.32776V25.6722C0.501233 26.8196 0.932257 27.9197 1.69851 28.731C2.46477 29.5423 3.50368 29.9987 4.58733 30H35.4865C36.5702 29.9987 37.6091 29.5423 38.3753 28.731C39.1416 27.9197 39.5726 26.8196 39.5738 25.6722V4.32776C39.5727 3.18037 39.1417 2.08033 38.3754 1.26899C37.6092 0.457657 36.5702 0.00128297 35.4866 0ZM28.2193 14.9941L37.939 6.91697V24.9843L28.2193 14.9941ZM4.58733 1.7311H35.4865C36.1367 1.73188 36.7601 2.00571 37.2198 2.49251C37.6796 2.9793 37.9382 3.63932 37.9389 4.32776V4.71639L22.2101 17.7878C21.635 18.2631 20.9262 18.521 20.1967 18.5204C19.4671 18.5198 18.7587 18.2607 18.1844 17.7843L2.13493 4.7131V4.32776C2.13567 3.63932 2.39428 2.9793 2.85403 2.49251C3.31379 2.00571 3.93714 1.73188 4.58733 1.7311ZM12.1438 15.0485L2.13493 25.0192V6.89706L12.1438 15.0485ZM35.4866 28.2689H4.58733C4.16865 28.2686 3.75701 28.1549 3.39158 27.9386C3.02616 27.7222 2.71911 27.4104 2.49968 27.0329L13.4565 16.1183L17.1827 19.1529C18.0444 19.8656 19.1066 20.2526 20.2 20.2523C21.2935 20.252 22.3555 19.8645 23.2169 19.1513L26.9215 16.0733L37.5784 27.026C37.3594 27.4054 37.052 27.719 36.6858 27.9366C36.3195 28.1542 35.9066 28.2686 35.4866 28.2689Z" fill="white"/>
</svg>
