<svg width="30" height="32" viewBox="0 0 30 32" fill="none" xmlns="http://www.w3.org/2000/svg">
<path d="M14.6893 22.6667C18.0085 22.6667 20.6994 19.6818 20.6994 16C20.6994 12.3181 18.0085 9.33334 14.6893 9.33334C11.37 9.33334 8.6792 12.3181 8.6792 16C8.6792 19.6818 11.37 22.6667 14.6893 22.6667Z" stroke="white" stroke-width="2" stroke-linecap="round" stroke-linejoin="round"/>
<path d="M1.1665 22.6667V9.33333C1.1665 4.73097 4.53003 1 8.67913 1H20.6993C24.8484 1 28.212 4.73097 28.212 9.33333V22.6667C28.212 27.269 24.8484 31 20.6993 31H8.67913C4.53003 31 1.1665 27.269 1.1665 22.6667Z" stroke="white" stroke-width="2"/>
<path d="M22.9526 6.85281L22.97 6.83151" stroke="white" stroke-width="2" stroke-linecap="round" stroke-linejoin="round"/>
</svg>
