<svg width="42" height="32" viewBox="0 0 42 32" fill="none" xmlns="http://www.w3.org/2000/svg">
<path d="M24.9435 16.0001L17.96 20.2254V11.7748L24.9435 16.0001Z" fill="black" stroke="white" stroke-width="2" stroke-linecap="round" stroke-linejoin="round"/>
<path d="M1 17.4948V14.5052C1 8.38829 1 5.32988 2.80672 3.362C4.61345 1.39412 7.45788 1.30893 13.1467 1.13857C15.8424 1.05784 18.5961 1 20.9529 1C23.3098 1 26.0635 1.05784 28.7591 1.13857C34.4479 1.30893 37.2924 1.39412 39.0991 3.362C40.9058 5.32988 40.9058 8.38829 40.9058 14.5052V17.4948C40.9058 23.6116 40.9058 26.6701 39.0991 28.6378C37.2924 30.6058 34.4481 30.6909 28.7593 30.8614C26.0635 30.9421 23.3098 31 20.9529 31C18.5961 31 15.8423 30.9421 13.1465 30.8614C7.45778 30.6909 4.61341 30.6058 2.8067 28.6378C1 26.6701 1 23.6116 1 17.4948Z" stroke="white" stroke-width="2"/>
</svg>
